<?xml version="1.0" encoding="utf-8"?>
<!-- Generator: Adobe Illustrator 25.3.1, SVG Export Plug-In . SVG Version: 6.00 Build 0)  -->
<svg version="1.1" id="Layer_1" xmlns="http://www.w3.org/2000/svg" xmlns:xlink="http://www.w3.org/1999/xlink" x="0px" y="0px"
	 viewBox="0 0 100 100" style="enable-background:new 0 0 100 100;" xml:space="preserve">
<style type="text/css">
	.st0{fill-rule:evenodd;clip-rule:evenodd;fill:#8F98A3;}
	.st1{fill-rule:evenodd;clip-rule:evenodd;fill:#FFFFFF;}
	.st2{fill:#FF4DEE;}
</style>
<g>
	<circle class="st0" cx="38.8" cy="38.8" r="38.8"/>
	<g transform="translate(26 24)">
		<path class="st1" d="M22.9,22.3H4.7v2.1c-0.4,2.1-2.1,3.7-4.2,3.7c-2.3,0-4.3-2-4.3-4.6c0-1.6,0.7-3,1.9-3.7l-1.2-1.9
			c-1.6,1.2-2.7,3.3-2.7,5.6c0,3.8,2.9,6.8,6.4,6.8c3.2,0,5.8-2.5,6.3-5.7h15.9c0.4,0.7,1.1,1.2,1.9,1.2c1.2,0,2.1-1,2.1-2.3
			c0-1.2-0.9-2.3-2.1-2.3C23.9,21.3,23.3,21.7,22.9,22.3z"/>
		<path class="st1" d="M-1,21.8c0-0.1,0.1-0.2,0.2-0.3c0.4-0.7,1.1-1.1,1.8-1.1L8.8,6.2c-2.3-2-3-5.5-1.4-8.3
			c1.7-3.1,5.6-4.2,8.5-2.4c1.9,1.1,3,3,3.1,5.1l-2.1,0.2c-0.1-1.4-0.9-2.6-2.1-3.4c-2-1.2-4.6-0.5-5.7,1.6C8,1,8.7,3.6,10.6,4.9
			l1.2,0.7L2.9,21.7c0.2,0.5,0.3,1.2,0.1,1.8c-0.4,0.9-1.2,1.5-2,1.5c-1.2,0-2.1-1-2.1-2.2C-1.2,22.4-1.1,22.1-1,21.8z"/>
		<path class="st1" d="M13.2,3.6L22,19.8l1.1-0.6l0,0l0,0c2-1.2,4.6-0.5,5.7,1.6c1.2,2.1,0.5,4.8-1.6,6c-1.2,0.8-2.6,0.8-3.9,0.2
			l-0.9,2c1.8,0.9,4,0.9,5.8-0.3c3-1.9,4-5.8,2.3-9c-1.6-2.9-4.8-4-7.6-2.8L15.2,2.6c0.3-0.6,0.4-1.5,0-2.2c-0.5-1-1.9-1.4-2.9-0.8
			s-1.3,1.9-0.8,3C11.9,3.3,12.6,3.6,13.2,3.6z"/>
	</g>
</g>
<path class="st2" d="M74.4,48.9c-14.1,0-25.6,11.5-25.6,25.6s11.5,25.6,25.6,25.6S100,88.7,100,74.5S88.5,48.9,74.4,48.9z
	 M81.7,86.4L71.2,75.8V61.7h6.4v11.5l8.7,8.7L81.7,86.4L81.7,86.4z"/>
</svg>
